# Blender v2.80 (sub 47) OBJ File: ''
# www.blender.org
mtllib barrel.mtl
o Cylinder.003_Cylinder.005
v 0.000000 0.075000 -0.050000
v 0.000000 0.075000 0.250000
v 0.053033 0.053033 0.250000
v 0.053033 0.053033 -0.050000
v 0.075000 -0.000000 0.250000
v 0.075000 0.000000 -0.050000
v 0.053033 -0.053033 0.250000
v 0.053033 -0.053033 -0.050000
v 0.000000 -0.075000 0.250000
v 0.000000 -0.075000 -0.050000
v -0.053033 -0.053033 0.250000
v -0.053033 -0.053033 -0.050000
v -0.075000 -0.000000 0.250000
v -0.075000 0.000000 -0.050000
v -0.053033 0.053033 0.250000
v -0.053033 0.053033 -0.050000
vt 0.751562 0.252906
vt 0.751562 0.252906
vt 0.751562 0.252906
vt 0.751562 0.252906
vt 0.751562 0.252906
vt 0.751562 0.252906
vt 0.751562 0.252906
vt 0.751562 0.252906
vt 0.751562 0.252906
vt 0.751562 0.252906
vt 0.751562 0.252906
vt 0.751562 0.252906
vt 0.751562 0.252906
vt 0.751562 0.252906
vt 0.751562 0.252906
vt 0.751562 0.252906
vn 0.3827 0.9239 0.0000
vn 0.9239 0.3827 0.0000
vn 0.9239 -0.3827 -0.0000
vn 0.3827 -0.9239 -0.0000
vn -0.3827 -0.9239 -0.0000
vn -0.9239 -0.3827 -0.0000
vn 0.0000 -0.0000 1.0000
vn -0.9239 0.3827 0.0000
vn -0.3827 0.9239 0.0000
vn 0.0000 0.0000 -1.0000
usemtl Material.004
s 1
f 1/1/1 2/2/1 3/3/1 4/4/1
f 4/4/2 3/3/2 5/5/2 6/6/2
f 6/6/3 5/5/3 7/7/3 8/8/3
f 8/8/4 7/7/4 9/9/4 10/10/4
f 10/10/5 9/9/5 11/11/5 12/12/5
f 12/12/6 11/11/6 13/13/6 14/14/6
f 3/3/7 2/2/7 15/15/7 13/13/7 11/11/7 9/9/7 7/7/7 5/5/7
f 14/14/8 13/13/8 15/15/8 16/16/8
f 16/16/9 15/15/9 2/2/9 1/1/9
f 1/1/10 4/4/10 6/6/10 8/8/10 10/10/10 12/12/10 14/14/10 16/16/10
