# Blender v2.80 (sub 47) OBJ File: ''
# www.blender.org
mtllib base.mtl
o Cube.002
v 0.194856 -0.050000 0.037500
v 0.194856 0.050000 0.037500
v 0.259808 0.050000 0.150000
v 0.259808 -0.050000 0.150000
v -0.259808 -0.050000 0.150000
v -0.194856 -0.050000 0.037500
v -0.091506 -0.050000 0.150000
v 0.091506 0.050000 0.150000
v 0.091506 -0.050000 0.150000
v -0.000069 -0.050000 -0.300000
v -0.000069 0.050000 -0.300000
v 0.077873 0.050000 -0.165000
v 0.077873 -0.050000 -0.165000
v -0.091506 0.050000 0.150000
v -0.259808 0.050000 0.150000
v -0.078011 0.050000 -0.165000
v -0.194856 0.050000 0.037500
v -0.078011 -0.050000 -0.165000
vt 0.062500 0.937500
vt 0.062500 0.937500
vt 0.062500 0.937500
vt 0.062500 0.937500
vt 0.062500 0.937500
vt 0.062500 0.937500
vt 0.062500 0.937500
vt 0.062500 0.937500
vt 0.062500 0.937500
vt 0.062500 0.937500
vt 0.062500 0.937500
vt 0.062500 0.937500
vt 0.062500 0.937500
vt 0.062500 0.937500
vt 0.062500 0.937500
vt 0.062500 0.937500
vt 0.062500 0.937500
vt 0.062500 0.937500
vn 0.8660 0.0000 -0.5000
vn 0.0000 -1.0000 -0.0000
vn 0.0000 -0.0000 1.0000
vn 0.0000 1.0000 0.0000
vn -0.8660 0.0000 -0.5000
usemtl Material.003
s 1
f 1/1/1 2/2/1 3/3/1 4/4/1
f 5/5/2 6/6/2 7/7/2
f 4/4/3 3/3/3 8/8/3 9/9/3
f 10/10/1 11/11/1 12/12/1 13/13/1
f 7/7/3 14/14/3 15/15/3 5/5/3
f 11/11/4 16/16/4 12/12/4
f 3/3/4 2/2/4 8/8/4
f 15/15/4 14/14/4 17/17/4
f 18/18/5 16/16/5 11/11/5 10/10/5
f 5/5/5 15/15/5 17/17/5 6/6/5
f 4/4/2 9/9/2 1/1/2
f 10/10/2 13/13/2 18/18/2
o Cylinder.003
v 0.000000 -0.026250 -0.400000
v -0.075000 0.026250 -0.379904
v 0.000000 0.026250 -0.400000
v 0.075000 -0.026250 -0.379904
v 0.075000 0.026250 -0.379904
v 0.129904 -0.026250 -0.325000
v 0.129904 0.026250 -0.325000
v 0.150000 -0.026250 -0.250000
v 0.150000 0.026250 -0.250000
v 0.129904 -0.026250 -0.175000
v 0.129904 0.026250 -0.175000
v 0.075000 -0.026250 -0.120096
v 0.075000 0.026250 -0.120096
v 0.000000 -0.026250 -0.100000
v 0.000000 0.026250 -0.100000
v -0.075000 -0.026250 -0.120096
v -0.075000 0.026250 -0.120096
v -0.129904 -0.026250 -0.175000
v -0.129904 0.026250 -0.175000
v -0.150000 -0.026250 -0.250000
v -0.150000 0.026250 -0.250000
v -0.129904 -0.026250 -0.325000
v -0.129904 0.026250 -0.325000
v -0.075000 -0.026250 -0.379904
vt 0.062500 0.067500
vt 0.062500 0.067500
vt 0.062500 0.067500
vt 0.062500 0.067500
vt 0.062500 0.067500
vt 0.062500 0.067500
vt 0.062500 0.067500
vt 0.062500 0.067500
vt 0.062500 0.067500
vt 0.062500 0.067500
vt 0.062500 0.067500
vt 0.062500 0.067500
vt 0.062500 0.067500
vt 0.062500 0.067500
vt 0.062500 0.067500
vt 0.062500 0.067500
vt 0.062500 0.067500
vt 0.062500 0.067500
vt 0.062500 0.067500
vt 0.062500 0.067500
vt 0.062500 0.067500
vt 0.062500 0.067500
vt 0.062500 0.067500
vt 0.062500 0.067500
vn 0.0000 0.0000 -1.0000
vn 0.5000 0.0000 -0.8660
vn 0.8660 0.0000 -0.5000
vn 1.0000 0.0000 -0.0000
vn 0.8660 0.0000 0.5000
vn 0.5000 -0.0000 0.8660
vn 0.0000 -0.0000 1.0000
vn -0.5000 -0.0000 0.8660
vn -0.8660 -0.0000 0.5000
vn -1.0000 0.0000 -0.0000
vn 0.0000 1.0000 0.0000
vn -0.8660 0.0000 -0.5000
vn -0.5000 -0.0000 -0.8660
vn 0.0000 -1.0000 -0.0000
usemtl Material.004
s 1
f 19/19/6 20/20/6 21/21/6 22/22/6
f 22/22/7 21/21/7 23/23/7 24/24/7
f 24/24/8 23/23/8 25/25/8 26/26/8
f 26/26/9 25/25/9 27/27/9 28/28/9
f 28/28/10 27/27/10 29/29/10 30/30/10
f 30/30/11 29/29/11 31/31/11 32/32/11
f 32/32/12 31/31/12 33/33/12 34/34/12
f 34/34/13 33/33/13 35/35/13 36/36/13
f 36/36/14 35/35/14 37/37/14 38/38/14
f 38/38/15 37/37/15 39/39/15 40/40/15
f 21/21/16 20/20/16 41/41/16 39/39/16 37/37/16 35/35/16 33/33/16 31/31/16 29/29/16 27/27/16 25/25/16 23/23/16
f 40/40/17 39/39/17 41/41/17 42/42/17
f 42/42/18 41/41/18 20/20/18 19/19/18
f 19/19/19 22/22/19 24/24/19 26/26/19 28/28/19 30/30/19 32/32/19 34/34/19 36/36/19 38/38/19 40/40/19 42/42/19
o Cylinder.004
v 0.291506 -0.026250 0.254904
v 0.346410 0.026250 0.200000
v 0.291506 0.026250 0.254904
v 0.216506 -0.026250 0.275000
v 0.216506 0.026250 0.275000
v 0.141506 -0.026250 0.254904
v 0.141506 0.026250 0.254904
v 0.086603 -0.026250 0.200000
v 0.086603 0.026250 0.200000
v 0.066506 -0.026250 0.125000
v 0.066506 0.026250 0.125000
v 0.086603 -0.026250 0.050000
v 0.086603 0.026250 0.050000
v 0.141506 -0.026250 -0.004904
v 0.141506 0.026250 -0.004904
v 0.216506 -0.026250 -0.025000
v 0.216506 0.026250 -0.025000
v 0.291506 -0.026250 -0.004904
v 0.291506 0.026250 -0.004904
v 0.346410 -0.026250 0.050000
v 0.346410 0.026250 0.050000
v 0.366506 -0.026250 0.125000
v 0.366506 0.026250 0.125000
v 0.346410 -0.026250 0.200000
vt 0.062500 0.067500
vt 0.062500 0.067500
vt 0.062500 0.067500
vt 0.062500 0.067500
vt 0.062500 0.067500
vt 0.062500 0.067500
vt 0.062500 0.067500
vt 0.062500 0.067500
vt 0.062500 0.067500
vt 0.062500 0.067500
vt 0.062500 0.067500
vt 0.062500 0.067500
vt 0.062500 0.067500
vt 0.062500 0.067500
vt 0.062500 0.067500
vt 0.062500 0.067500
vt 0.062500 0.067500
vt 0.062500 0.067500
vt 0.062500 0.067500
vt 0.062500 0.067500
vt 0.062500 0.067500
vt 0.062500 0.067500
vt 0.062500 0.067500
vt 0.062500 0.067500
vn 0.5000 -0.0000 0.8660
vn 0.0000 0.0000 1.0000
vn -0.5000 0.0000 0.8660
vn -0.8660 0.0000 0.5000
vn -1.0000 0.0000 -0.0000
vn -0.8660 0.0000 -0.5000
vn -0.5000 0.0000 -0.8660
vn 0.0000 0.0000 -1.0000
vn 0.5000 0.0000 -0.8660
vn 0.8660 -0.0000 -0.5000
vn 0.0000 1.0000 0.0000
vn 1.0000 0.0000 -0.0000
vn 0.8660 0.0000 0.5000
vn 0.0000 -1.0000 -0.0000
usemtl Material.004
s 1
f 43/43/20 44/44/20 45/45/20 46/46/20
f 46/46/21 45/45/21 47/47/21 48/48/21
f 48/48/22 47/47/22 49/49/22 50/50/22
f 50/50/23 49/49/23 51/51/23 52/52/23
f 52/52/24 51/51/24 53/53/24 54/54/24
f 54/54/25 53/53/25 55/55/25 56/56/25
f 56/56/26 55/55/26 57/57/26 58/58/26
f 58/58/27 57/57/27 59/59/27 60/60/27
f 60/60/28 59/59/28 61/61/28 62/62/28
f 62/62/29 61/61/29 63/63/29 64/64/29
f 45/45/30 44/44/30 65/65/30 63/63/30 61/61/30 59/59/30 57/57/30 55/55/30 53/53/30 51/51/30 49/49/30 47/47/30
f 64/64/31 63/63/31 65/65/31 66/66/31
f 66/66/32 65/65/32 44/44/32 43/43/32
f 43/43/33 46/46/33 48/48/33 50/50/33 52/52/33 54/54/33 56/56/33 58/58/33 60/60/33 62/62/33 64/64/33 66/66/33
o Cylinder.006
v -0.346410 -0.026250 0.200000
v -0.291506 0.026250 0.254904
v -0.346410 0.026250 0.200000
v -0.366506 -0.026250 0.125000
v -0.366506 0.026250 0.125000
v -0.346410 -0.026250 0.050000
v -0.346410 0.026250 0.050000
v -0.291506 -0.026250 -0.004904
v -0.291506 0.026250 -0.004904
v -0.216506 -0.026250 -0.025000
v -0.216506 0.026250 -0.025000
v -0.141506 -0.026250 -0.004904
v -0.141506 0.026250 -0.004904
v -0.086603 -0.026250 0.050000
v -0.086603 0.026250 0.050000
v -0.066506 -0.026250 0.125000
v -0.066506 0.026250 0.125000
v -0.086603 -0.026250 0.200000
v -0.086603 0.026250 0.200000
v -0.141506 -0.026250 0.254904
v -0.141506 0.026250 0.254904
v -0.216506 -0.026250 0.275000
v -0.216506 0.026250 0.275000
v -0.291506 -0.026250 0.254904
vt 0.062500 0.067500
vt 0.062500 0.067500
vt 0.062500 0.067500
vt 0.062500 0.067500
vt 0.062500 0.067500
vt 0.062500 0.067500
vt 0.062500 0.067500
vt 0.062500 0.067500
vt 0.062500 0.067500
vt 0.062500 0.067500
vt 0.062500 0.067500
vt 0.062500 0.067500
vt 0.062500 0.067500
vt 0.062500 0.067500
vt 0.062500 0.067500
vt 0.062500 0.067500
vt 0.062500 0.067500
vt 0.062500 0.067500
vt 0.062500 0.067500
vt 0.062500 0.067500
vt 0.062500 0.067500
vt 0.062500 0.067500
vt 0.062500 0.067500
vt 0.062500 0.067500
vn -0.8660 -0.0000 0.5000
vn -1.0000 0.0000 -0.0000
vn -0.8660 0.0000 -0.5000
vn -0.5000 0.0000 -0.8660
vn 0.0000 0.0000 -1.0000
vn 0.5000 0.0000 -0.8660
vn 0.8660 0.0000 -0.5000
vn 1.0000 0.0000 -0.0000
vn 0.8660 0.0000 0.5000
vn 0.5000 0.0000 0.8660
vn 0.0000 1.0000 0.0000
vn 0.0000 0.0000 1.0000
vn -0.5000 0.0000 0.8660
vn 0.0000 -1.0000 -0.0000
usemtl Material.004
s 1
f 67/67/34 68/68/34 69/69/34 70/70/34
f 70/70/35 69/69/35 71/71/35 72/72/35
f 72/72/36 71/71/36 73/73/36 74/74/36
f 74/74/37 73/73/37 75/75/37 76/76/37
f 76/76/38 75/75/38 77/77/38 78/78/38
f 78/78/39 77/77/39 79/79/39 80/80/39
f 80/80/40 79/79/40 81/81/40 82/82/40
f 82/82/41 81/81/41 83/83/41 84/84/41
f 84/84/42 83/83/42 85/85/42 86/86/42
f 86/86/43 85/85/43 87/87/43 88/88/43
f 69/69/44 68/68/44 89/89/44 87/87/44 85/85/44 83/83/44 81/81/44 79/79/44 77/77/44 75/75/44 73/73/44 71/71/44
f 88/88/45 87/87/45 89/89/45 90/90/45
f 90/90/46 89/89/46 68/68/46 67/67/46
f 67/67/47 70/70/47 72/72/47 74/74/47 76/76/47 78/78/47 80/80/47 82/82/47 84/84/47 86/86/47 88/88/47 90/90/47
o Cube.003
v 0.000000 0.060000 -0.184167
v 0.159493 0.060000 0.092083
v 0.269911 0.075000 -0.014167
v 0.147224 0.075000 -0.226667
v -0.159493 -0.000000 0.092083
v -0.159493 -0.060000 0.092083
v -0.122687 -0.075000 0.240833
v -0.122687 -0.000000 0.240833
v 0.061343 0.060000 -0.046042
v 0.061343 0.060000 0.092083
v -0.159493 0.060000 0.092083
v -0.147224 0.075000 -0.226667
v -0.269911 0.075000 -0.014167
v 0.000000 -0.060000 -0.184167
v 0.000000 -0.060000 -0.071042
v -0.061344 -0.060000 -0.046042
v 0.159493 -0.000000 0.092083
v 0.122687 0.075000 0.240833
v 0.122687 -0.000000 0.240833
v 0.147224 0.000000 -0.226667
v 0.269911 0.000000 -0.014167
v 0.000000 0.000000 -0.184167
v 0.159493 -0.060000 0.092083
v 0.147224 -0.075000 -0.226667
v 0.269911 -0.075000 -0.014167
v -0.269911 0.000000 -0.014167
v -0.147224 0.000000 -0.226667
v -0.147224 -0.075000 -0.226667
v -0.269911 -0.075000 -0.014167
v 0.076679 0.075000 0.240833
v -0.061344 -0.060000 0.092083
v -0.076679 -0.075000 0.240833
v 0.076679 -0.000000 0.240833
v 0.061343 0.000000 -0.046042
v 0.000000 0.060000 -0.071042
v 0.000000 0.000000 -0.071042
v -0.076679 0.075000 0.240833
v -0.061344 0.060000 0.092083
v -0.122687 0.075000 0.240833
v -0.061344 0.060000 -0.046042
v -0.076679 -0.000000 0.240833
v -0.061344 0.000000 -0.046042
v 0.076679 -0.075000 0.240833
v 0.061343 -0.060000 0.092083
v 0.122687 -0.075000 0.240833
v 0.061343 -0.060000 -0.046042
vt 0.937500 0.940000
vt 0.937500 0.940000
vt 0.937500 0.940000
vt 0.937500 0.940000
vt 0.937500 0.940000
vt 0.937500 0.940000
vt 0.937500 0.940000
vt 0.937500 0.940000
vt 0.937500 0.940000
vt 0.937500 0.940000
vt 0.937500 0.940000
vt 0.937500 0.940000
vt 0.937500 0.940000
vt 0.937500 0.940000
vt 0.937500 0.940000
vt 0.937500 0.940000
vt 0.937500 0.940000
vt 0.937500 0.940000
vt 0.937500 0.940000
vt 0.937500 0.940000
vt 0.937500 0.940000
vt 0.937500 0.940000
vt 0.937500 0.940000
vt 0.937500 0.940000
vt 0.937500 0.940000
vt 0.937500 0.940000
vt 0.937500 0.940000
vt 0.937500 0.940000
vt 0.937500 0.940000
vt 0.937500 0.940000
vt 0.937500 0.940000
vt 0.937500 0.940000
vt 0.937500 0.940000
vt 0.937500 0.940000
vt 0.937500 0.940000
vt 0.937500 0.940000
vt 0.937500 0.940000
vt 0.937500 0.940000
vt 0.937500 0.940000
vt 0.937500 0.940000
vt 0.937500 0.940000
vt 0.937500 0.940000
vt 0.937500 0.940000
vt 0.937500 0.940000
vt 0.937500 0.940000
vt 0.937500 0.940000
vn -0.0869 0.9950 0.0502
vn -0.9707 -0.0000 0.2402
vn 0.0000 1.0000 0.0000
vn 0.0869 0.9950 0.0502
vn -0.0000 -1.0000 -0.0000
vn 0.9707 -0.0000 0.2402
vn 0.8660 -0.0000 -0.5000
vn -0.2774 0.0000 -0.9608
vn -0.0869 -0.9950 0.0502
vn 0.6934 -0.0000 0.7206
vn -0.8660 0.0000 -0.5000
vn -0.6934 -0.0000 0.7206
vn 0.2774 0.0000 -0.9608
vn 0.0869 -0.9950 0.0502
vn 0.0000 0.9950 -0.1003
vn 0.0000 -0.9950 -0.1003
vn 0.0000 -0.0000 1.0000
vn -0.3774 -0.0000 0.9260
vn 0.3774 -0.0000 0.9261
vn 0.9947 0.0000 0.1025
vn 1.0000 0.0000 0.0000
vn -0.9947 0.0000 0.1026
vn -1.0000 0.0000 0.0000
usemtl Material.005
s 1
f 91/91/48 92/92/48 93/93/48 94/94/48
f 95/95/49 96/96/49 97/97/49 98/98/49
f 92/92/50 99/99/50 100/100/50
f 101/101/51 91/91/51 102/102/51 103/103/51
f 104/104/52 105/105/52 106/106/52
f 107/107/53 92/92/53 108/108/53 109/109/53
f 110/110/54 94/94/54 93/93/54 111/111/54
f 112/112/55 91/91/55 94/94/55 110/110/55
f 113/113/56 104/104/56 114/114/56 115/115/56
f 107/107/57 113/113/57 115/115/57 111/111/57
f 116/116/58 103/103/58 102/102/58 117/117/58
f 95/95/59 101/101/59 103/103/59 116/116/59
f 112/112/60 104/104/60 118/118/60 117/117/60
f 104/104/61 96/96/61 119/119/61 118/118/61
f 92/92/62 100/100/62 120/120/62 108/108/62
f 96/96/63 121/121/63 122/122/63 97/97/63
f 109/109/64 108/108/64 120/120/64 123/123/64
f 124/124/65 99/99/65 125/125/65 126/126/65
f 127/127/62 128/128/62 101/101/62 129/129/62
f 128/128/50 130/130/50 101/101/50
f 131/131/64 127/127/64 129/129/64 98/98/64
f 126/126/66 125/125/66 130/130/66 132/132/66
f 133/133/63 134/134/63 113/113/63 135/135/63
f 121/121/52 96/96/52 106/106/52
f 134/134/52 136/136/52 113/113/52
f 125/125/50 99/99/50 91/91/50
f 130/130/50 125/125/50 91/91/50
f 136/136/52 105/105/52 104/104/52
f 105/105/66 126/126/66 132/132/66 106/106/66
f 122/122/64 131/131/64 98/98/64 97/97/64
f 136/136/65 124/124/65 126/126/65 105/105/65
f 135/135/64 109/109/64 123/123/64 133/133/64
f 91/91/60 112/112/60 117/117/60 102/102/60
f 96/96/59 95/95/59 116/116/59 119/119/59
f 119/119/58 116/116/58 117/117/58 118/118/58
f 92/92/57 107/107/57 111/111/57 93/93/57
f 104/104/55 112/112/55 110/110/55 114/114/55
f 114/114/54 110/110/54 111/111/54 115/115/54
f 113/113/53 107/107/53 109/109/53 135/135/53
f 101/101/49 95/95/49 98/98/49 129/129/49
f 106/106/52 96/96/52 104/104/52
f 113/113/52 136/136/52 104/104/52
f 101/101/50 130/130/50 91/91/50
f 99/99/50 92/92/50 91/91/50
f 128/128/67 127/127/67 131/131/67 122/122/67 121/121/67
f 130/130/68 128/128/68 121/121/68 106/106/68
f 120/120/69 100/100/69 134/134/69 133/133/69 123/123/69
f 136/136/70 134/134/70 100/100/70 99/99/70
