# Blender v2.79 (sub 0) OBJ File: ''
# www.blender.org
mtllib cockpit_large.mtl
o Ring_Torus.001
v 1.313618 0.016872 0.162988
v 0.837011 0.016872 -0.313618
v 0.803310 0.169406 -0.232256
v 1.232256 0.169406 0.196690
v 0.735908 0.169406 -0.069532
v 1.069532 0.169406 0.264092
v 0.702207 0.016872 0.011829
v 0.988171 0.016872 0.297793
v 0.735908 -0.135662 -0.069532
v 1.069532 -0.135662 0.264092
v 0.803310 -0.135662 -0.232256
v 1.232256 -0.135662 0.196690
v 0.162988 0.016872 -0.313618
v 0.196690 0.169406 -0.232256
v 0.264092 0.169406 -0.069532
v 0.297793 0.016872 0.011829
v 0.264092 -0.135662 -0.069532
v 0.196690 -0.135662 -0.232256
v -0.313618 0.016872 0.162989
v -0.232256 0.169406 0.196690
v -0.069532 0.169406 0.264092
v 0.011829 0.016872 0.297793
v -0.069532 -0.135662 0.264092
v -0.232256 -0.135662 0.196690
v -0.313618 0.016872 0.837011
v -0.232256 0.169406 0.803310
v -0.069532 0.169406 0.735908
v 0.011829 0.016872 0.702207
v -0.069532 -0.135662 0.735908
v -0.232256 -0.135662 0.803310
v 0.162988 0.016872 1.313617
v 0.196690 0.169406 1.232256
v 0.264092 0.169406 1.069532
v 0.297793 0.016872 0.988171
v 0.264092 -0.135662 1.069532
v 0.196690 -0.135662 1.232256
v 0.837012 0.016872 1.313618
v 0.803310 0.169406 1.232256
v 0.735908 0.169406 1.069532
v 0.702207 0.016872 0.988171
v 0.735908 -0.135662 1.069532
v 0.803310 -0.135662 1.232256
v 1.313617 0.016872 0.837012
v 1.232256 0.169406 0.803311
v 1.069532 0.169406 0.735908
v 0.988171 0.016872 0.702207
v 1.069532 -0.135662 0.735908
v 1.232256 -0.135662 0.803311
vn 0.6239 0.4706 -0.6239
vn 0.0000 1.0000 0.0000
vn -0.6239 0.4706 0.6239
vn -0.6239 -0.4706 0.6239
vn -0.0000 -1.0000 -0.0000
vn 0.6239 -0.4706 -0.6239
vn 0.0000 0.4706 -0.8823
vn 0.0000 0.4706 0.8823
vn 0.0000 -0.4706 0.8823
vn 0.0000 -0.4706 -0.8823
vn -0.6239 0.4706 -0.6239
vn 0.6239 0.4706 0.6239
vn 0.6239 -0.4706 0.6239
vn -0.6239 -0.4706 -0.6239
vn -0.8823 0.4706 0.0000
vn 0.8823 0.4706 0.0000
vn 0.8823 -0.4706 -0.0000
vn -0.8823 -0.4706 -0.0000
usemtl Material.Ring
s off
f 1//1 2//1 3//1 4//1
f 4//2 3//2 5//2 6//2
f 6//3 5//3 7//3 8//3
f 8//4 7//4 9//4 10//4
f 10//5 9//5 11//5 12//5
f 1//6 12//6 11//6 2//6
f 2//7 13//7 14//7 3//7
f 3//2 14//2 15//2 5//2
f 5//8 15//8 16//8 7//8
f 7//9 16//9 17//9 9//9
f 9//5 17//5 18//5 11//5
f 11//10 18//10 13//10 2//10
f 13//11 19//11 20//11 14//11
f 14//2 20//2 21//2 15//2
f 15//12 21//12 22//12 16//12
f 16//13 22//13 23//13 17//13
f 17//5 23//5 24//5 18//5
f 18//14 24//14 19//14 13//14
f 19//15 25//15 26//15 20//15
f 20//2 26//2 27//2 21//2
f 21//16 27//16 28//16 22//16
f 22//17 28//17 29//17 23//17
f 23//5 29//5 30//5 24//5
f 24//18 30//18 25//18 19//18
f 25//3 31//3 32//3 26//3
f 26//2 32//2 33//2 27//2
f 27//1 33//1 34//1 28//1
f 28//6 34//6 35//6 29//6
f 29//5 35//5 36//5 30//5
f 30//4 36//4 31//4 25//4
f 31//8 37//8 38//8 32//8
f 32//2 38//2 39//2 33//2
f 33//7 39//7 40//7 34//7
f 34//10 40//10 41//10 35//10
f 35//5 41//5 42//5 36//5
f 36//9 42//9 37//9 31//9
f 37//12 43//12 44//12 38//12
f 38//2 44//2 45//2 39//2
f 39//11 45//11 46//11 40//11
f 40//14 46//14 47//14 41//14
f 41//5 47//5 48//5 42//5
f 42//13 48//13 43//13 37//13
f 43//16 1//16 4//16 44//16
f 44//2 4//2 6//2 45//2
f 45//15 6//15 8//15 46//15
f 46//18 8//18 10//18 47//18
f 47//5 10//5 12//5 48//5
f 48//17 12//17 1//17 43//17
o Sphere_Icosphere
v 0.500000 -0.247586 0.500000
v 0.815568 -0.131141 0.729271
v 0.379466 -0.131141 0.870971
v 1.040958 0.165666 0.893025
v 1.131137 0.109932 0.500000
v 0.109937 -0.131139 0.500000
v 0.379466 -0.131141 0.129029
v 0.815568 -0.131141 0.270729
v 1.205634 0.500000 0.729272
v 0.293375 0.165666 1.135933
v 0.695034 0.109931 1.100245
v 0.500000 0.500000 1.241947
v -0.168660 0.165668 0.500000
v -0.010600 0.109932 0.870972
v -0.205635 0.500000 0.729272
v 0.293375 0.165666 -0.135933
v -0.010600 0.109932 0.129028
v 0.063894 0.500000 -0.100247
v 1.040958 0.165666 0.106975
v 0.695034 0.109931 -0.100245
v 0.936106 0.500000 -0.100247
v 0.936106 0.500000 1.100247
v 0.063894 0.500000 1.100247
v -0.205635 0.500001 0.270728
v 0.500000 0.500000 -0.241947
v 1.205634 0.500000 0.270728
v 0.706625 0.834334 1.135933
v 1.010601 0.890068 0.870972
v 0.620535 1.131141 0.870971
v -0.040958 0.834334 0.893025
v 0.304966 0.890069 1.100245
v 0.184432 1.131141 0.729271
v -0.040958 0.834334 0.106975
v -0.131137 0.890068 0.500000
v 0.184432 1.131141 0.270729
v 0.706625 0.834335 -0.135933
v 0.304966 0.890069 -0.100245
v 0.620535 1.131141 0.129029
v 1.168660 0.834332 0.500000
v 1.010601 0.890068 0.129028
v 0.890063 1.131140 0.500000
v 0.500000 1.247586 0.500000
v 0.822817 0.300486 1.135682
v -0.119147 0.126958 0.674707
v 0.326218 0.013423 1.034854
v 1.240257 0.488617 0.500000
v 0.351385 1.220613 0.607975
v 0.165804 -0.040748 0.879491
v 1.103591 0.126956 0.277419
v 0.394552 1.157018 0.175471
v 0.452686 1.040749 -0.003450
v 0.101789 0.873045 1.005265
v 1.210998 0.689342 0.607975
v 0.993431 -0.040748 0.389422
v 0.452686 1.040749 1.003450
v 0.351385 1.220613 0.392026
v 0.673782 0.986578 -0.034854
v 1.119148 0.873043 0.325293
v -0.134809 0.300487 0.175470
v 1.004815 0.699514 1.003452
v 0.035809 -0.040747 0.700571
v -0.098881 0.488618 0.064891
v -0.138676 0.689344 0.830557
v 0.177183 0.699514 -0.135682
v 0.617017 0.689344 -0.209564
v 0.857483 0.873045 -0.034855
v 1.098881 0.511383 0.064891
v -0.011744 0.689344 1.005265
v 0.605448 -0.157017 0.175471
v 0.648615 -0.220613 0.392026
v 0.898211 0.126956 -0.005265
v 0.841231 -0.157017 0.500000
v -0.004815 0.300486 1.003452
v 0.326218 0.013423 -0.034854
v 0.316302 -0.220612 0.500000
v 0.158769 1.157017 0.500000
v -0.098881 0.488618 0.935109
v 0.617017 0.689344 1.209565
v -0.103592 0.873044 0.277419
v 0.474833 0.126955 1.142830
v 0.223938 -0.157016 0.700570
v 0.387516 0.699514 1.204024
v -0.011744 0.689344 -0.005265
v 0.776062 1.157017 0.700571
v 0.177600 0.310656 1.142832
v -0.004815 0.300486 -0.003452
v -0.119147 0.126958 0.325293
v 1.004815 0.699514 -0.003452
v 0.382983 0.310656 -0.209565
v 0.954975 0.013423 0.830556
v 0.822400 0.689344 -0.142832
v 0.857483 0.873044 1.034855
v 0.271248 0.511383 1.204025
v -0.134809 0.300487 0.824530
v 0.648615 -0.220613 0.607974
v 0.898211 0.126955 1.005264
v -0.210998 0.310658 0.607975
v 0.547314 -0.040749 -0.003450
v 0.776062 1.157017 0.299430
v 0.547314 -0.040749 1.003450
v 0.728752 0.488618 -0.204025
v 0.757647 -0.040749 0.064893
v -0.204327 0.699514 0.389422
v 1.210998 0.689342 0.392025
v 1.062381 0.986575 0.500000
v 0.394552 1.157017 0.824529
v 0.142517 0.126956 -0.034855
v 1.204327 0.300487 0.610578
v 0.757647 -0.040749 0.935107
v 1.119148 0.873043 0.674707
v 0.964191 1.040747 0.299430
v 0.045024 0.986577 0.830556
v 0.223938 -0.157016 0.299430
v 0.822400 0.689344 1.142832
v 0.242353 1.040749 0.064893
v 0.387516 0.699514 -0.204024
v 1.204327 0.300487 0.389422
v -0.204327 0.699514 0.610578
v 0.964191 1.040747 0.700571
v 0.271248 0.511383 -0.204025
v 0.177600 0.310657 -0.142832
v 0.035809 -0.040747 0.299429
v 0.177183 0.699514 1.135682
v -0.103592 0.873044 0.722581
v 0.101789 0.873045 -0.005264
v 0.525167 0.873045 -0.142830
v 0.242353 1.040749 0.935107
v 0.142517 0.126956 1.034855
v 1.011744 0.310656 1.005265
v 1.011744 0.310656 -0.005265
v -0.062381 0.013425 0.500000
v -0.138676 0.689344 0.169443
v 0.006569 1.040748 0.389422
v 0.165804 -0.040748 0.120509
v 0.474833 0.126956 -0.142830
v 0.006569 1.040748 0.610578
v -0.210998 0.310658 0.392025
v 0.045024 0.986577 0.169445
v 0.822817 0.300486 -0.135682
v 0.443235 -0.220613 0.325294
v 0.612484 0.300486 1.204024
v 0.612484 0.300486 -0.204024
v 0.683698 1.220613 0.500000
v 0.556765 1.220613 0.325294
v 1.103591 0.126956 0.722581
v -0.240257 0.511383 0.500000
v 0.382983 0.310656 1.209564
v 1.138676 0.310657 0.830557
v 0.673782 0.986577 1.034854
v 0.605448 -0.157017 0.824529
v 0.993431 -0.040748 0.610578
v 0.443235 -0.220613 0.674706
v 0.954975 0.013423 0.169444
v 0.525167 0.873045 1.142830
v 0.728752 0.488617 1.204025
v 0.834196 1.040748 0.120509
v 0.834196 1.040748 0.879491
v 1.098881 0.511382 0.935109
v 1.134809 0.699513 0.824530
v 0.556766 1.220613 0.674707
v 1.138676 0.310657 0.169443
v 1.134809 0.699513 0.175470
vn -0.0000 -1.0000 -0.0000
vn 0.2212 -0.9619 0.1607
vn -0.0845 -0.9619 0.2600
vn 0.7236 -0.4472 0.5257
vn 0.5971 -0.6747 0.4338
vn 0.8183 -0.5057 0.2732
vn -0.2734 -0.9619 -0.0000
vn -0.0845 -0.9619 -0.2600
vn 0.2212 -0.9619 -0.1607
vn 0.8705 -0.2324 0.4338
vn -0.2764 -0.4472 0.8506
vn -0.0069 -0.5057 0.8627
vn -0.1436 -0.2324 0.9620
vn -0.8944 -0.4472 -0.0000
vn -0.8226 -0.5057 0.2600
vn -0.9593 -0.2324 0.1607
vn -0.2764 -0.4472 -0.8506
vn -0.5015 -0.5057 -0.7020
vn -0.4493 -0.2324 -0.8627
vn 0.7236 -0.4472 -0.5257
vn 0.5127 -0.5057 -0.6938
vn 0.6816 -0.2324 -0.6938
vn 0.6816 -0.2324 0.6938
vn -0.4493 -0.2324 0.8627
vn -0.9593 -0.2324 -0.1607
vn -0.1436 -0.2324 -0.9620
vn 0.8705 -0.2324 -0.4338
vn 0.2764 0.4472 0.8506
vn 0.5015 0.5057 0.7020
vn 0.2281 0.6747 0.7020
vn -0.7236 0.4472 0.5257
vn -0.5127 0.5057 0.6938
vn -0.5971 0.6747 0.4338
vn -0.7236 0.4472 -0.5257
vn -0.8183 0.5057 -0.2732
vn -0.5971 0.6747 -0.4338
vn 0.2764 0.4472 -0.8506
vn 0.0069 0.5057 -0.8627
vn 0.2281 0.6747 -0.7020
vn 0.8944 0.4472 0.0000
vn 0.8226 0.5057 -0.2600
vn 0.7381 0.6747 0.0000
vn 0.5257 0.8507 0.0000
vn 0.3773 0.8846 -0.2741
vn 0.2734 0.9619 0.0000
vn 0.6224 0.7331 -0.2741
vn 0.6882 0.5257 -0.5000
vn 0.5015 0.5057 -0.7020
vn 0.4531 0.7331 -0.5072
vn 0.1625 0.8507 -0.5000
vn -0.1441 0.8846 -0.4436
vn 0.0845 0.9619 -0.2600
vn -0.0684 0.7331 -0.6767
vn -0.2629 0.5257 -0.8090
vn -0.5127 0.5057 -0.6938
vn -0.3424 0.7331 -0.5876
vn -0.4253 0.8507 -0.3090
vn -0.4664 0.8846 0.0000
vn -0.2212 0.9619 -0.1607
vn -0.6647 0.7331 -0.1441
vn -0.8506 0.5257 0.0000
vn -0.8183 0.5057 0.2732
vn -0.6647 0.7331 0.1441
vn -0.4253 0.8507 0.3090
vn -0.1441 0.8846 0.4436
vn -0.2212 0.9619 0.1607
vn -0.3424 0.7331 0.5876
vn -0.2629 0.5257 0.8090
vn 0.0069 0.5057 0.8627
vn -0.0684 0.7331 0.6767
vn 0.1625 0.8507 0.5000
vn 0.3773 0.8846 0.2741
vn 0.0845 0.9619 0.2600
vn 0.4531 0.7331 0.5072
vn 0.6882 0.5257 0.5000
vn 0.8226 0.5057 0.2600
vn 0.6224 0.7331 0.2742
vn 0.9511 -0.0000 -0.3090
vn 0.8556 0.2667 -0.4436
vn 0.9593 0.2324 -0.1607
vn 0.8088 0.0216 -0.5876
vn 0.5878 0.0000 -0.8090
vn 0.4493 0.2324 -0.8627
vn 0.6863 0.2667 -0.6767
vn 0.0000 0.0000 -1.0000
vn -0.1575 0.2667 -0.9508
vn 0.1436 0.2324 -0.9620
vn -0.3089 0.0216 -0.9508
vn -0.5878 -0.0000 -0.8090
vn -0.6816 0.2324 -0.6938
vn -0.4315 0.2667 -0.8618
vn -0.9511 0.0000 -0.3090
vn -0.9530 0.2667 -0.1441
vn -0.8705 0.2324 -0.4338
vn -0.9998 0.0216 0.0000
vn -0.9511 0.0000 0.3090
vn -0.8705 0.2324 0.4338
vn -0.9530 0.2667 0.1441
vn -0.5878 -0.0000 0.8090
vn -0.4315 0.2667 0.8618
vn -0.6816 0.2324 0.6938
vn -0.3089 0.0216 0.9508
vn 0.0000 -0.0000 1.0000
vn 0.1436 0.2324 0.9620
vn -0.1575 0.2667 0.9508
vn 0.5878 0.0000 0.8090
vn 0.6863 0.2667 0.6767
vn 0.4493 0.2324 0.8627
vn 0.8088 0.0216 0.5876
vn 0.9511 -0.0000 0.3090
vn 0.9593 0.2324 0.1607
vn 0.8556 0.2667 0.4436
vn 0.3089 -0.0216 -0.9508
vn 0.4315 -0.2667 -0.8618
vn 0.2629 -0.5257 -0.8090
vn -0.0069 -0.5057 -0.8627
vn 0.1575 -0.2667 -0.9508
vn -0.8088 -0.0216 -0.5876
vn -0.6863 -0.2667 -0.6767
vn -0.6882 -0.5257 -0.5000
vn -0.8226 -0.5057 -0.2600
vn -0.8556 -0.2667 -0.4436
vn -0.8088 -0.0216 0.5876
vn -0.8556 -0.2667 0.4436
vn -0.6882 -0.5257 0.5000
vn -0.5015 -0.5057 0.7020
vn -0.6863 -0.2667 0.6767
vn 0.3089 -0.0216 0.9508
vn 0.1575 -0.2667 0.9508
vn 0.2629 -0.5257 0.8090
vn 0.5127 -0.5057 0.6938
vn 0.4315 -0.2667 0.8618
vn 0.9998 -0.0216 0.0000
vn 0.9530 -0.2667 0.1441
vn 0.8506 -0.5257 -0.0000
vn 0.8183 -0.5057 -0.2732
vn 0.9530 -0.2667 -0.1441
vn 0.4253 -0.8507 -0.3090
vn 0.3424 -0.7331 -0.5876
vn 0.5971 -0.6747 -0.4338
vn 0.1441 -0.8846 -0.4436
vn -0.1625 -0.8507 -0.5000
vn -0.2281 -0.6747 -0.7020
vn 0.0684 -0.7331 -0.6767
vn -0.4531 -0.7331 -0.5072
vn -0.3773 -0.8846 -0.2741
vn -0.5257 -0.8507 -0.0000
vn -0.7381 -0.6747 -0.0000
vn -0.6224 -0.7331 -0.2741
vn -0.6224 -0.7331 0.2741
vn -0.3773 -0.8846 0.2741
vn -0.1625 -0.8507 0.5000
vn -0.2281 -0.6747 0.7020
vn -0.4531 -0.7331 0.5072
vn 0.6647 -0.7331 -0.1441
vn 0.6647 -0.7331 0.1441
vn 0.4253 -0.8507 0.3090
vn 0.4664 -0.8846 -0.0000
vn 0.0684 -0.7331 0.6767
vn 0.1441 -0.8846 0.4436
vn 0.3424 -0.7331 0.5876
vn 0.0000 1.0000 0.0000
usemtl Material.Sphere
s 1
f 49//19 143//20 200//21
f 52//22 138//23 193//24
f 49//19 200//21 123//25
f 49//19 123//25 188//26
f 49//19 188//26 118//27
f 52//22 193//24 196//28
f 58//29 128//30 195//31
f 61//32 92//33 145//34
f 64//35 155//36 169//37
f 67//38 119//39 178//40
f 52//22 196//28 177//41
f 58//29 195//31 133//42
f 61//32 145//34 185//43
f 64//35 169//37 137//44
f 67//38 178//40 209//45
f 75//46 140//47 197//48
f 78//49 100//50 160//51
f 81//52 127//53 186//54
f 84//55 174//56 105//57
f 87//58 106//59 153//60
f 89//61 147//62 191//63
f 89//61 159//64 147//62
f 88//65 114//66 204//67
f 86//68 98//69 192//70
f 86//68 99//71 98//69
f 85//72 173//73 163//74
f 83//75 124//76 104//77
f 83//75 181//78 124//76
f 82//79 172//80 184//81
f 80//82 154//83 95//84
f 80//82 175//85 154//83
f 79//86 202//87 103//88
f 77//89 132//90 208//91
f 77//89 205//92 132//90
f 76//93 158//94 167//95
f 74//96 210//97 152//98
f 74//96 115//99 210//97
f 69//100 139//101 136//102
f 73//103 164//104 113//105
f 73//103 168//106 164//104
f 66//107 131//108 112//109
f 72//110 151//111 180//112
f 72//110 194//113 151//111
f 63//114 111//115 166//116
f 71//117 171//118 116//119
f 71//117 141//120 171//118
f 60//121 126//122 130//123
f 70//124 108//125 162//126
f 70//124 206//127 108//125
f 57//128 101//129 207//130
f 69//100 149//131 139//101
f 69//100 187//132 149//131
f 68//133 183//134 190//135
f 66//107 110//136 131//108
f 66//107 134//137 110//136
f 65//138 135//139 107//140
f 63//114 125//141 111//115
f 63//114 142//142 125//141
f 62//143 176//144 121//145
f 60//121 203//146 126//122
f 60//121 189//147 203//146
f 59//148 144//149 91//150
f 57//128 94//151 101//129
f 57//128 156//152 94//151
f 53//153 97//154 165//155
f 56//156 150//157 201//158
f 56//156 117//159 150//157
f 55//160 122//161 146//162
f 55//160 182//163 122//161
f 55//160 161//164 182//163
f 54//165 179//166 170//167
f 54//165 109//168 179//166
f 54//165 129//169 109//168
f 51//170 93//171 96//172
f 53//153 102//173 97//154
f 53//153 199//174 102//173
f 50//175 143//20 120//176
f 51//170 148//177 93//171
f 51//170 198//178 148//177
f 50//175 138//23 157//179
f 157//179 144//149 59//148
f 157//179 138//23 144//149
f 138//23 52//22 144//149
f 148//177 157//179 59//148
f 148//177 198//178 157//179
f 198//178 50//175 157//179
f 93//171 128//30 58//29
f 93//171 148//177 128//30
f 148//177 59//148 128//30
f 120//176 118//27 56//156
f 120//176 143//20 118//27
f 143//20 49//19 118//27
f 102//173 120//176 56//156
f 102//173 199//174 120//176
f 199//174 50//175 120//176
f 97//154 201//158 67//38
f 97//154 102//173 201//158
f 102//173 56//156 201//158
f 96//172 176//144 62//143
f 96//172 93//171 176//144
f 93//171 58//29 176//144
f 109//168 96//172 62//143
f 109//168 129//169 96//172
f 129//169 51//170 96//172
f 179//166 92//33 61//32
f 179//166 109//168 92//33
f 109//168 62//143 92//33
f 170//167 135//139 65//138
f 170//167 179//166 135//139
f 179//166 61//32 135//139
f 182//163 170//167 65//138
f 182//163 161//164 170//167
f 161//164 54//165 170//167
f 122//161 155//36 64//35
f 122//161 182//163 155//36
f 182//163 65//138 155//36
f 146//162 183//134 68//133
f 146//162 122//161 183//134
f 122//161 64//35 183//134
f 150//157 146//162 68//133
f 150//157 117//159 146//162
f 117//159 55//160 146//162
f 201//158 119//39 67//38
f 201//158 150//157 119//39
f 150//157 68//133 119//39
f 165//155 209//45 74//96
f 165//155 97//154 209//45
f 97//154 67//38 209//45
f 94//151 165//155 74//96
f 94//151 156//152 165//155
f 156//152 53//153 165//155
f 101//129 152//98 87//58
f 101//129 94//151 152//98
f 94//151 74//96 152//98
f 91//150 177//41 70//124
f 91//150 144//149 177//41
f 144//149 52//22 177//41
f 203//146 91//150 70//124
f 203//146 189//147 91//150
f 189//147 59//148 91//150
f 126//122 162//126 75//46
f 126//122 203//146 162//126
f 203//146 70//124 162//126
f 121//145 133//42 71//117
f 121//145 176//144 133//42
f 176//144 58//29 133//42
f 125//141 121//145 71//117
f 125//141 142//142 121//145
f 142//142 62//143 121//145
f 111//115 116//119 78//49
f 111//115 125//141 116//119
f 125//141 71//117 116//119
f 107//140 185//43 72//110
f 107//140 135//139 185//43
f 135//139 61//32 185//43
f 110//136 107//140 72//110
f 110//136 134//137 107//140
f 134//137 65//138 107//140
f 131//108 180//112 81//52
f 131//108 110//136 180//112
f 110//136 72//110 180//112
f 190//135 137//44 73//103
f 190//135 183//134 137//44
f 183//134 64//35 137//44
f 149//131 190//135 73//103
f 149//131 187//132 190//135
f 187//132 68//133 190//135
f 139//101 113//105 84//55
f 139//101 149//131 113//105
f 149//131 73//103 113//105
f 207//130 158//94 76//93
f 207//130 101//129 158//94
f 101//129 87//58 158//94
f 108//125 207//130 76//93
f 108//125 206//127 207//130
f 206//127 57//128 207//130
f 162//126 140//47 75//46
f 162//126 108//125 140//47
f 108//125 76//93 140//47
f 130//123 202//87 79//86
f 130//123 126//122 202//87
f 126//122 75//46 202//87
f 171//118 130//123 79//86
f 171//118 141//120 130//123
f 141//120 60//121 130//123
f 116//119 100//50 78//49
f 116//119 171//118 100//50
f 171//118 79//86 100//50
f 166//116 172//80 82//79
f 166//116 111//115 172//80
f 111//115 78//49 172//80
f 151//111 166//116 82//79
f 151//111 194//113 166//116
f 194//113 63//114 166//116
f 180//112 127//53 81//52
f 180//112 151//111 127//53
f 151//111 82//79 127//53
f 112//109 173//73 85//72
f 112//109 131//108 173//73
f 131//108 81//52 173//73
f 164//104 112//109 85//72
f 164//104 168//106 112//109
f 168//106 66//107 112//109
f 113//105 174//56 84//55
f 113//105 164//104 174//56
f 164//104 85//72 174//56
f 136//102 114//66 88//65
f 136//102 139//101 114//66
f 139//101 84//55 114//66
f 210//97 136//102 88//65
f 210//97 115//99 136//102
f 115//99 69//100 136//102
f 152//98 106//59 87//58
f 152//98 210//97 106//59
f 210//97 88//65 106//59
f 167//95 153//60 89//61
f 167//95 158//94 153//60
f 158//94 87//58 153//60
f 132//90 167//95 89//61
f 132//90 205//92 167//95
f 205//92 76//93 167//95
f 208//91 191//63 90//180
f 208//91 132//90 191//63
f 132//90 89//61 191//63
f 103//88 197//48 77//89
f 103//88 202//87 197//48
f 202//87 75//46 197//48
f 154//83 103//88 77//89
f 154//83 175//85 103//88
f 175//85 79//86 103//88
f 95//84 208//91 90//180
f 95//84 154//83 208//91
f 154//83 77//89 208//91
f 184//81 160//51 80//82
f 184//81 172//80 160//51
f 172//80 78//49 160//51
f 124//76 184//81 80//82
f 124//76 181//78 184//81
f 181//78 82//79 184//81
f 104//77 95//84 90//180
f 104//77 124//76 95//84
f 124//76 80//82 95//84
f 163//74 186//54 83//75
f 163//74 173//73 186//54
f 173//73 81//52 186//54
f 98//69 163//74 83//75
f 98//69 99//71 163//74
f 99//71 85//72 163//74
f 192//70 104//77 90//180
f 192//70 98//69 104//77
f 98//69 83//75 104//77
f 204//67 105//57 86//68
f 204//67 114//66 105//57
f 114//66 84//55 105//57
f 147//62 204//67 86//68
f 147//62 159//64 204//67
f 159//64 88//65 204//67
f 191//63 192//70 90//180
f 191//63 147//62 192//70
f 147//62 86//68 192//70
f 153//60 159//64 89//61
f 153//60 106//59 159//64
f 106//59 88//65 159//64
f 105//57 99//71 86//68
f 105//57 174//56 99//71
f 174//56 85//72 99//71
f 186//54 181//78 83//75
f 186//54 127//53 181//78
f 127//53 82//79 181//78
f 160//51 175//85 80//82
f 160//51 100//50 175//85
f 100//50 79//86 175//85
f 197//48 205//92 77//89
f 197//48 140//47 205//92
f 140//47 76//93 205//92
f 209//45 115//99 74//96
f 209//45 178//40 115//99
f 178//40 69//100 115//99
f 137//44 168//106 73//103
f 137//44 169//37 168//106
f 169//37 66//107 168//106
f 185//43 194//113 72//110
f 185//43 145//34 194//113
f 145//34 63//114 194//113
f 133//42 141//120 71//117
f 133//42 195//31 141//120
f 195//31 60//121 141//120
f 177//41 206//127 70//124
f 177//41 196//28 206//127
f 196//28 57//128 206//127
f 178//40 187//132 69//100
f 178//40 119//39 187//132
f 119//39 68//133 187//132
f 169//37 134//137 66//107
f 169//37 155//36 134//137
f 155//36 65//138 134//137
f 145//34 142//142 63//114
f 145//34 92//33 142//142
f 92//33 62//143 142//142
f 195//31 189//147 60//121
f 195//31 128//30 189//147
f 128//30 59//148 189//147
f 196//28 156//152 57//128
f 196//28 193//24 156//152
f 193//24 53//153 156//152
f 118//27 117//159 56//156
f 118//27 188//26 117//159
f 188//26 55//160 117//159
f 188//26 161//164 55//160
f 188//26 123//25 161//164
f 123//25 54//165 161//164
f 123//25 129//169 54//165
f 123//25 200//21 129//169
f 200//21 51//170 129//169
f 193//24 199//174 53//153
f 193//24 138//23 199//174
f 138//23 50//175 199//174
f 200//21 198//178 51//170
f 200//21 143//20 198//178
f 143//20 50//175 198//178
o Base_Cylinder
v 0.117317 -0.400000 -0.423880
v 0.217863 0.029192 -0.181138
v 0.782137 0.029192 -0.181138
v 0.882683 -0.400000 -0.423880
v 1.181138 0.029192 0.217863
v 1.423880 -0.400000 0.117317
v 1.181138 0.029192 0.782137
v 1.423880 -0.400000 0.882683
v 0.782137 0.029192 1.181138
v 0.882683 -0.400000 1.423880
v 0.217863 0.029192 1.181138
v 0.117316 -0.400000 1.423879
v -0.181138 0.029192 0.782137
v -0.423880 -0.400000 0.882683
v -0.181138 0.029192 0.217863
v -0.423880 -0.400000 0.117317
v 1.423880 -0.500000 0.117317
v 0.882683 -0.500000 -0.423880
v 0.117317 -0.500000 -0.423880
v 1.423880 -0.500000 0.882683
v 0.882683 -0.500000 1.423880
v 0.117316 -0.500000 1.423879
v -0.423880 -0.500000 0.882683
v -0.423880 -0.500000 0.117317
vn 0.0000 0.4923 -0.8704
vn 0.6155 0.4923 -0.6155
vn 0.8704 0.4923 0.0000
vn 0.6155 0.4923 0.6155
vn -0.0000 0.4923 0.8704
vn -0.6155 0.4923 0.6155
vn 0.0000 1.0000 0.0000
vn -0.8704 0.4923 0.0000
vn -0.6155 0.4923 -0.6155
vn 0.7071 0.0000 -0.7071
vn 0.0000 -1.0000 -0.0000
vn -0.0000 -0.0000 1.0000
vn -0.7071 0.0000 -0.7071
vn 0.0000 0.0000 -1.0000
vn 1.0000 0.0000 0.0000
vn -0.7071 0.0000 0.7071
vn 0.7071 0.0000 0.7071
vn -1.0000 0.0000 0.0000
usemtl Material.Base
s off
f 211//181 212//181 213//181 214//181
f 214//182 213//182 215//182 216//182
f 216//183 215//183 217//183 218//183
f 218//184 217//184 219//184 220//184
f 220//185 219//185 221//185 222//185
f 222//186 221//186 223//186 224//186
f 213//187 212//187 225//187 223//187 221//187 219//187 217//187 215//187
f 224//188 223//188 225//188 226//188
f 226//189 225//189 212//189 211//189
f 214//190 216//190 227//190 228//190
f 229//191 228//191 227//191 230//191 231//191 232//191 233//191 234//191
f 220//192 222//192 232//192 231//192
f 226//193 211//193 229//193 234//193
f 211//194 214//194 228//194 229//194
f 216//195 218//195 230//195 227//195
f 222//196 224//196 233//196 232//196
f 218//197 220//197 231//197 230//197
f 224//198 226//198 234//198 233//198
o Plane.054_Plane.048
v -0.146268 -0.497472 -0.145367
v 0.144504 -0.497472 -0.145705
v 0.144842 -0.497578 0.145066
v -0.145930 -0.497577 0.145404
v -0.000713 -0.637915 -0.000201
vn 0.0008 -0.7196 0.6944
vn -0.6946 -0.7194 0.0005
vn -0.0008 -0.7191 -0.6949
vn 0.6946 -0.7194 -0.0011
usemtl Material.221
s off
f 239//199 237//199 238//199
f 235//200 239//200 238//200
f 235//201 236//201 239//201
f 236//202 237//202 239//202
o Plane.000
v -0.146268 -0.497472 0.854633
v 0.144504 -0.497472 0.854295
v 0.144842 -0.497578 1.145066
v -0.145930 -0.497577 1.145404
v -0.000713 -0.637915 0.999799
vn 0.0008 -0.7196 0.6944
vn -0.6946 -0.7194 0.0005
vn -0.0008 -0.7191 -0.6949
vn 0.6946 -0.7194 -0.0011
usemtl Material.001
s off
f 244//203 242//203 243//203
f 240//204 244//204 243//204
f 240//205 241//205 244//205
f 241//206 242//206 244//206
o Plane.002
v 0.853732 -0.497472 0.854633
v 1.144504 -0.497472 0.854295
v 1.144842 -0.497578 1.145066
v 0.854070 -0.497577 1.145404
v 0.999287 -0.637915 0.999799
vn 0.0008 -0.7196 0.6944
vn -0.6946 -0.7194 0.0005
vn -0.0008 -0.7191 -0.6949
vn 0.6946 -0.7194 -0.0011
usemtl Material.003
s off
f 249//207 247//207 248//207
f 245//208 249//208 248//208
f 245//209 246//209 249//209
f 246//210 247//210 249//210
o Plane.001
v 0.853732 -0.497472 -0.145367
v 1.144504 -0.497472 -0.145705
v 1.144842 -0.497578 0.145066
v 0.854070 -0.497577 0.145404
v 0.999287 -0.637915 -0.000201
vn 0.0008 -0.7196 0.6944
vn -0.6946 -0.7194 0.0005
vn -0.0008 -0.7191 -0.6949
vn 0.6946 -0.7194 -0.0011
usemtl Material.002
s off
f 254//211 252//211 253//211
f 250//212 254//212 253//212
f 250//213 251//213 254//213
f 251//214 252//214 254//214
